<mxfile host="app.diagrams.net" agent="Mozilla/5.0 (Windows NT 10.0; Win64; x64) AppleWebKit/537.36 (KHTML, like Gecko) Chrome/129.0.0.0 Safari/537.36 Edg/129.0.0.0" version="24.7.16">
  <diagram name="Page-1" id="lxv5FMv6K4h8PS2ND3wO">
    <mxGraphModel dx="2088" dy="1577" grid="1" gridSize="10" guides="1" tooltips="1" connect="1" arrows="1" fold="1" page="1" pageScale="1" pageWidth="850" pageHeight="1100" math="0" shadow="0">
      <root>
        <mxCell id="0" />
        <mxCell id="1" parent="0" />
        <mxCell id="63IlsyqGjVsd49jZ4odT-6" value="" style="edgeStyle=orthogonalEdgeStyle;rounded=0;orthogonalLoop=1;jettySize=auto;html=1;entryX=0.183;entryY=-0.008;entryDx=0;entryDy=0;entryPerimeter=0;" edge="1" parent="1" source="63IlsyqGjVsd49jZ4odT-8" target="63IlsyqGjVsd49jZ4odT-2">
          <mxGeometry relative="1" as="geometry">
            <mxPoint x="410" y="310" as="targetPoint" />
          </mxGeometry>
        </mxCell>
        <mxCell id="63IlsyqGjVsd49jZ4odT-11" style="edgeStyle=orthogonalEdgeStyle;rounded=0;orthogonalLoop=1;jettySize=auto;html=1;entryX=0;entryY=0.5;entryDx=0;entryDy=0;" edge="1" parent="1" source="63IlsyqGjVsd49jZ4odT-1" target="63IlsyqGjVsd49jZ4odT-9">
          <mxGeometry relative="1" as="geometry" />
        </mxCell>
        <mxCell id="63IlsyqGjVsd49jZ4odT-14" style="edgeStyle=orthogonalEdgeStyle;rounded=0;orthogonalLoop=1;jettySize=auto;html=1;entryX=0;entryY=0.5;entryDx=0;entryDy=0;" edge="1" parent="1" source="63IlsyqGjVsd49jZ4odT-1" target="63IlsyqGjVsd49jZ4odT-10">
          <mxGeometry relative="1" as="geometry" />
        </mxCell>
        <mxCell id="63IlsyqGjVsd49jZ4odT-1" value="Client Web Browser" style="ellipse;whiteSpace=wrap;html=1;aspect=fixed;" vertex="1" parent="1">
          <mxGeometry x="-110" y="185" width="170" height="170" as="geometry" />
        </mxCell>
        <mxCell id="63IlsyqGjVsd49jZ4odT-16" value="" style="edgeStyle=orthogonalEdgeStyle;rounded=0;orthogonalLoop=1;jettySize=auto;html=1;" edge="1" parent="1" source="63IlsyqGjVsd49jZ4odT-2" target="63IlsyqGjVsd49jZ4odT-15">
          <mxGeometry relative="1" as="geometry">
            <Array as="points">
              <mxPoint x="550" y="385" />
            </Array>
          </mxGeometry>
        </mxCell>
        <mxCell id="63IlsyqGjVsd49jZ4odT-35" value="" style="edgeStyle=orthogonalEdgeStyle;rounded=0;orthogonalLoop=1;jettySize=auto;html=1;" edge="1" parent="1" source="63IlsyqGjVsd49jZ4odT-2" target="63IlsyqGjVsd49jZ4odT-34">
          <mxGeometry relative="1" as="geometry">
            <Array as="points">
              <mxPoint x="550" y="145" />
            </Array>
          </mxGeometry>
        </mxCell>
        <mxCell id="63IlsyqGjVsd49jZ4odT-49" style="edgeStyle=orthogonalEdgeStyle;rounded=0;orthogonalLoop=1;jettySize=auto;html=1;entryX=0.5;entryY=0;entryDx=0;entryDy=0;" edge="1" parent="1" source="63IlsyqGjVsd49jZ4odT-50" target="63IlsyqGjVsd49jZ4odT-3">
          <mxGeometry relative="1" as="geometry" />
        </mxCell>
        <mxCell id="63IlsyqGjVsd49jZ4odT-58" style="edgeStyle=orthogonalEdgeStyle;rounded=0;orthogonalLoop=1;jettySize=auto;html=1;entryX=1;entryY=0.5;entryDx=0;entryDy=0;" edge="1" parent="1" source="63IlsyqGjVsd49jZ4odT-2" target="63IlsyqGjVsd49jZ4odT-56">
          <mxGeometry relative="1" as="geometry" />
        </mxCell>
        <mxCell id="63IlsyqGjVsd49jZ4odT-164" style="edgeStyle=orthogonalEdgeStyle;rounded=0;orthogonalLoop=1;jettySize=auto;html=1;exitX=0.75;exitY=0;exitDx=0;exitDy=0;entryX=0;entryY=0.5;entryDx=0;entryDy=0;" edge="1" parent="1" source="63IlsyqGjVsd49jZ4odT-2" target="63IlsyqGjVsd49jZ4odT-157">
          <mxGeometry relative="1" as="geometry" />
        </mxCell>
        <mxCell id="63IlsyqGjVsd49jZ4odT-165" style="edgeStyle=orthogonalEdgeStyle;rounded=0;orthogonalLoop=1;jettySize=auto;html=1;exitX=0.75;exitY=0;exitDx=0;exitDy=0;entryX=0;entryY=0.5;entryDx=0;entryDy=0;" edge="1" parent="1" source="63IlsyqGjVsd49jZ4odT-2" target="63IlsyqGjVsd49jZ4odT-159">
          <mxGeometry relative="1" as="geometry" />
        </mxCell>
        <mxCell id="63IlsyqGjVsd49jZ4odT-166" style="edgeStyle=orthogonalEdgeStyle;rounded=0;orthogonalLoop=1;jettySize=auto;html=1;exitX=0.75;exitY=0;exitDx=0;exitDy=0;entryX=0;entryY=0.5;entryDx=0;entryDy=0;" edge="1" parent="1" source="63IlsyqGjVsd49jZ4odT-2" target="63IlsyqGjVsd49jZ4odT-160">
          <mxGeometry relative="1" as="geometry" />
        </mxCell>
        <mxCell id="63IlsyqGjVsd49jZ4odT-167" style="edgeStyle=orthogonalEdgeStyle;rounded=0;orthogonalLoop=1;jettySize=auto;html=1;exitX=0.75;exitY=0;exitDx=0;exitDy=0;entryX=0;entryY=0.5;entryDx=0;entryDy=0;" edge="1" parent="1" source="63IlsyqGjVsd49jZ4odT-2" target="63IlsyqGjVsd49jZ4odT-161">
          <mxGeometry relative="1" as="geometry" />
        </mxCell>
        <mxCell id="63IlsyqGjVsd49jZ4odT-168" style="edgeStyle=orthogonalEdgeStyle;rounded=0;orthogonalLoop=1;jettySize=auto;html=1;exitX=0.75;exitY=0;exitDx=0;exitDy=0;entryX=0;entryY=0.5;entryDx=0;entryDy=0;" edge="1" parent="1" source="63IlsyqGjVsd49jZ4odT-2" target="63IlsyqGjVsd49jZ4odT-162">
          <mxGeometry relative="1" as="geometry" />
        </mxCell>
        <mxCell id="63IlsyqGjVsd49jZ4odT-2" value="NODE JS SERVER&amp;nbsp;" style="rounded=0;whiteSpace=wrap;html=1;" vertex="1" parent="1">
          <mxGeometry x="460" y="220" width="180" height="100" as="geometry" />
        </mxCell>
        <mxCell id="63IlsyqGjVsd49jZ4odT-3" value="ETHEREUM" style="ellipse;whiteSpace=wrap;html=1;aspect=fixed;" vertex="1" parent="1">
          <mxGeometry x="465" y="520" width="170" height="170" as="geometry" />
        </mxCell>
        <mxCell id="63IlsyqGjVsd49jZ4odT-4" value="MONGODB" style="html=1;dashed=0;whiteSpace=wrap;shape=partialRectangle;right=0;left=0;" vertex="1" parent="1">
          <mxGeometry x="460" y="-90" width="170" height="110" as="geometry" />
        </mxCell>
        <mxCell id="63IlsyqGjVsd49jZ4odT-7" value="" style="edgeStyle=orthogonalEdgeStyle;rounded=0;orthogonalLoop=1;jettySize=auto;html=1;entryX=0.01;entryY=0.68;entryDx=0;entryDy=0;entryPerimeter=0;" edge="1" parent="1" source="63IlsyqGjVsd49jZ4odT-1" target="63IlsyqGjVsd49jZ4odT-8">
          <mxGeometry relative="1" as="geometry">
            <mxPoint x="290" y="325" as="sourcePoint" />
            <mxPoint x="460" y="300" as="targetPoint" />
          </mxGeometry>
        </mxCell>
        <mxCell id="63IlsyqGjVsd49jZ4odT-8" value="1.1" style="rounded=0;whiteSpace=wrap;html=1;" vertex="1" parent="1">
          <mxGeometry x="280" y="180" width="70" height="40" as="geometry" />
        </mxCell>
        <mxCell id="63IlsyqGjVsd49jZ4odT-9" value="5.2" style="rounded=0;whiteSpace=wrap;html=1;" vertex="1" parent="1">
          <mxGeometry x="280" y="250" width="70" height="40" as="geometry" />
        </mxCell>
        <mxCell id="63IlsyqGjVsd49jZ4odT-10" value="5.3" style="rounded=0;whiteSpace=wrap;html=1;" vertex="1" parent="1">
          <mxGeometry x="280" y="320" width="70" height="40" as="geometry" />
        </mxCell>
        <mxCell id="63IlsyqGjVsd49jZ4odT-12" style="edgeStyle=orthogonalEdgeStyle;rounded=0;orthogonalLoop=1;jettySize=auto;html=1;entryX=0;entryY=0.5;entryDx=0;entryDy=0;" edge="1" parent="1" source="63IlsyqGjVsd49jZ4odT-9" target="63IlsyqGjVsd49jZ4odT-2">
          <mxGeometry relative="1" as="geometry">
            <Array as="points">
              <mxPoint x="410" y="270" />
              <mxPoint x="410" y="270" />
            </Array>
          </mxGeometry>
        </mxCell>
        <mxCell id="63IlsyqGjVsd49jZ4odT-13" style="edgeStyle=orthogonalEdgeStyle;rounded=0;orthogonalLoop=1;jettySize=auto;html=1;entryX=0.192;entryY=1.008;entryDx=0;entryDy=0;entryPerimeter=0;" edge="1" parent="1" source="63IlsyqGjVsd49jZ4odT-10" target="63IlsyqGjVsd49jZ4odT-2">
          <mxGeometry relative="1" as="geometry">
            <mxPoint x="490" y="320" as="targetPoint" />
          </mxGeometry>
        </mxCell>
        <mxCell id="63IlsyqGjVsd49jZ4odT-17" style="edgeStyle=orthogonalEdgeStyle;rounded=0;orthogonalLoop=1;jettySize=auto;html=1;entryX=0.5;entryY=1;entryDx=0;entryDy=0;" edge="1" parent="1" source="63IlsyqGjVsd49jZ4odT-15" target="63IlsyqGjVsd49jZ4odT-1">
          <mxGeometry relative="1" as="geometry" />
        </mxCell>
        <mxCell id="63IlsyqGjVsd49jZ4odT-15" value="1.2" style="rounded=0;whiteSpace=wrap;html=1;" vertex="1" parent="1">
          <mxGeometry x="180" y="360" width="55" height="50" as="geometry" />
        </mxCell>
        <mxCell id="63IlsyqGjVsd49jZ4odT-36" style="edgeStyle=orthogonalEdgeStyle;rounded=0;orthogonalLoop=1;jettySize=auto;html=1;entryX=0.5;entryY=0;entryDx=0;entryDy=0;" edge="1" parent="1" source="63IlsyqGjVsd49jZ4odT-34" target="63IlsyqGjVsd49jZ4odT-1">
          <mxGeometry relative="1" as="geometry" />
        </mxCell>
        <mxCell id="63IlsyqGjVsd49jZ4odT-34" value="1.3" style="rounded=0;whiteSpace=wrap;html=1;" vertex="1" parent="1">
          <mxGeometry x="180" y="120" width="55" height="50" as="geometry" />
        </mxCell>
        <mxCell id="63IlsyqGjVsd49jZ4odT-40" style="edgeStyle=orthogonalEdgeStyle;rounded=0;orthogonalLoop=1;jettySize=auto;html=1;exitX=0;exitY=0.25;exitDx=0;exitDy=0;entryX=0.971;entryY=0.35;entryDx=0;entryDy=0;entryPerimeter=0;" edge="1" parent="1" source="63IlsyqGjVsd49jZ4odT-42" target="63IlsyqGjVsd49jZ4odT-1">
          <mxGeometry relative="1" as="geometry">
            <Array as="points">
              <mxPoint x="90" y="240" />
              <mxPoint x="55" y="240" />
            </Array>
          </mxGeometry>
        </mxCell>
        <mxCell id="63IlsyqGjVsd49jZ4odT-41" style="edgeStyle=orthogonalEdgeStyle;rounded=0;orthogonalLoop=1;jettySize=auto;html=1;exitX=0;exitY=0.75;exitDx=0;exitDy=0;entryX=0.995;entryY=0.645;entryDx=0;entryDy=0;entryPerimeter=0;" edge="1" parent="1" source="63IlsyqGjVsd49jZ4odT-44" target="63IlsyqGjVsd49jZ4odT-1">
          <mxGeometry relative="1" as="geometry">
            <Array as="points">
              <mxPoint x="90" y="300" />
              <mxPoint x="59" y="300" />
            </Array>
          </mxGeometry>
        </mxCell>
        <mxCell id="63IlsyqGjVsd49jZ4odT-43" value="" style="edgeStyle=orthogonalEdgeStyle;rounded=0;orthogonalLoop=1;jettySize=auto;html=1;exitX=0;exitY=0.25;exitDx=0;exitDy=0;entryX=0.971;entryY=0.35;entryDx=0;entryDy=0;entryPerimeter=0;" edge="1" parent="1" source="63IlsyqGjVsd49jZ4odT-2" target="63IlsyqGjVsd49jZ4odT-42">
          <mxGeometry relative="1" as="geometry">
            <mxPoint x="460" y="245" as="sourcePoint" />
            <mxPoint x="55" y="245" as="targetPoint" />
          </mxGeometry>
        </mxCell>
        <mxCell id="63IlsyqGjVsd49jZ4odT-42" value="5.1" style="rounded=0;whiteSpace=wrap;html=1;" vertex="1" parent="1">
          <mxGeometry x="90" y="220" width="40" height="40" as="geometry" />
        </mxCell>
        <mxCell id="63IlsyqGjVsd49jZ4odT-45" value="" style="edgeStyle=orthogonalEdgeStyle;rounded=0;orthogonalLoop=1;jettySize=auto;html=1;exitX=0;exitY=0.75;exitDx=0;exitDy=0;entryX=0.995;entryY=0.645;entryDx=0;entryDy=0;entryPerimeter=0;" edge="1" parent="1" source="63IlsyqGjVsd49jZ4odT-2" target="63IlsyqGjVsd49jZ4odT-44">
          <mxGeometry relative="1" as="geometry">
            <mxPoint x="460" y="295" as="sourcePoint" />
            <mxPoint x="59" y="295" as="targetPoint" />
          </mxGeometry>
        </mxCell>
        <mxCell id="63IlsyqGjVsd49jZ4odT-44" value="5.4" style="rounded=0;whiteSpace=wrap;html=1;" vertex="1" parent="1">
          <mxGeometry x="90" y="280" width="40" height="40" as="geometry" />
        </mxCell>
        <mxCell id="63IlsyqGjVsd49jZ4odT-46" style="edgeStyle=orthogonalEdgeStyle;rounded=0;orthogonalLoop=1;jettySize=auto;html=1;entryX=0.824;entryY=0.909;entryDx=0;entryDy=0;entryPerimeter=0;" edge="1" parent="1" source="63IlsyqGjVsd49jZ4odT-47" target="63IlsyqGjVsd49jZ4odT-4">
          <mxGeometry relative="1" as="geometry" />
        </mxCell>
        <mxCell id="63IlsyqGjVsd49jZ4odT-48" value="" style="edgeStyle=orthogonalEdgeStyle;rounded=0;orthogonalLoop=1;jettySize=auto;html=1;entryX=0.824;entryY=0.909;entryDx=0;entryDy=0;entryPerimeter=0;" edge="1" parent="1" source="63IlsyqGjVsd49jZ4odT-2" target="63IlsyqGjVsd49jZ4odT-47">
          <mxGeometry relative="1" as="geometry">
            <mxPoint x="550" y="220" as="sourcePoint" />
            <mxPoint x="600" y="20" as="targetPoint" />
          </mxGeometry>
        </mxCell>
        <mxCell id="63IlsyqGjVsd49jZ4odT-47" value="5.5" style="rounded=0;whiteSpace=wrap;html=1;" vertex="1" parent="1">
          <mxGeometry x="465" y="60" width="70" height="40" as="geometry" />
        </mxCell>
        <mxCell id="63IlsyqGjVsd49jZ4odT-51" value="" style="edgeStyle=orthogonalEdgeStyle;rounded=0;orthogonalLoop=1;jettySize=auto;html=1;entryX=0.5;entryY=0;entryDx=0;entryDy=0;" edge="1" parent="1" source="63IlsyqGjVsd49jZ4odT-2" target="63IlsyqGjVsd49jZ4odT-50">
          <mxGeometry relative="1" as="geometry">
            <mxPoint x="550" y="320" as="sourcePoint" />
            <mxPoint x="550" y="520" as="targetPoint" />
          </mxGeometry>
        </mxCell>
        <mxCell id="63IlsyqGjVsd49jZ4odT-50" value="5.12" style="rounded=0;whiteSpace=wrap;html=1;" vertex="1" parent="1">
          <mxGeometry x="515" y="430" width="70" height="40" as="geometry" />
        </mxCell>
        <mxCell id="63IlsyqGjVsd49jZ4odT-52" style="edgeStyle=orthogonalEdgeStyle;rounded=0;orthogonalLoop=1;jettySize=auto;html=1;exitX=0.75;exitY=1;exitDx=0;exitDy=0;entryX=0.34;entryY=-0.013;entryDx=0;entryDy=0;entryPerimeter=0;" edge="1" parent="1" source="63IlsyqGjVsd49jZ4odT-4" target="63IlsyqGjVsd49jZ4odT-47">
          <mxGeometry relative="1" as="geometry" />
        </mxCell>
        <mxCell id="63IlsyqGjVsd49jZ4odT-53" style="edgeStyle=orthogonalEdgeStyle;rounded=0;orthogonalLoop=1;jettySize=auto;html=1;exitX=0.5;exitY=1;exitDx=0;exitDy=0;entryX=0.647;entryY=0.01;entryDx=0;entryDy=0;entryPerimeter=0;" edge="1" parent="1" source="63IlsyqGjVsd49jZ4odT-47" target="63IlsyqGjVsd49jZ4odT-2">
          <mxGeometry relative="1" as="geometry" />
        </mxCell>
        <mxCell id="63IlsyqGjVsd49jZ4odT-56" value="5.11" style="rounded=0;whiteSpace=wrap;html=1;" vertex="1" parent="1">
          <mxGeometry x="710" y="360" width="70" height="40" as="geometry" />
        </mxCell>
        <mxCell id="63IlsyqGjVsd49jZ4odT-59" style="edgeStyle=orthogonalEdgeStyle;rounded=0;orthogonalLoop=1;jettySize=auto;html=1;exitX=0;exitY=0.5;exitDx=0;exitDy=0;entryX=1.002;entryY=0.91;entryDx=0;entryDy=0;entryPerimeter=0;" edge="1" parent="1" source="63IlsyqGjVsd49jZ4odT-56" target="63IlsyqGjVsd49jZ4odT-2">
          <mxGeometry relative="1" as="geometry">
            <Array as="points">
              <mxPoint x="640" y="380" />
            </Array>
          </mxGeometry>
        </mxCell>
        <mxCell id="63IlsyqGjVsd49jZ4odT-99" value="" style="edgeStyle=orthogonalEdgeStyle;rounded=0;orthogonalLoop=1;jettySize=auto;html=1;" edge="1" parent="1" source="63IlsyqGjVsd49jZ4odT-63" target="63IlsyqGjVsd49jZ4odT-98">
          <mxGeometry relative="1" as="geometry" />
        </mxCell>
        <mxCell id="63IlsyqGjVsd49jZ4odT-101" style="edgeStyle=orthogonalEdgeStyle;rounded=0;orthogonalLoop=1;jettySize=auto;html=1;exitX=1;exitY=0.5;exitDx=0;exitDy=0;entryX=-0.003;entryY=0.076;entryDx=0;entryDy=0;entryPerimeter=0;" edge="1" parent="1" source="63IlsyqGjVsd49jZ4odT-102" target="63IlsyqGjVsd49jZ4odT-68">
          <mxGeometry relative="1" as="geometry">
            <Array as="points">
              <mxPoint x="-750" y="280" />
              <mxPoint x="-510" y="280" />
            </Array>
          </mxGeometry>
        </mxCell>
        <mxCell id="63IlsyqGjVsd49jZ4odT-108" style="edgeStyle=orthogonalEdgeStyle;rounded=0;orthogonalLoop=1;jettySize=auto;html=1;entryX=0;entryY=0.5;entryDx=0;entryDy=0;" edge="1" parent="1" source="63IlsyqGjVsd49jZ4odT-109" target="63IlsyqGjVsd49jZ4odT-68">
          <mxGeometry relative="1" as="geometry">
            <Array as="points" />
          </mxGeometry>
        </mxCell>
        <mxCell id="63IlsyqGjVsd49jZ4odT-111" style="edgeStyle=orthogonalEdgeStyle;rounded=0;orthogonalLoop=1;jettySize=auto;html=1;exitX=1;exitY=0.5;exitDx=0;exitDy=0;entryX=0;entryY=0.88;entryDx=0;entryDy=0;entryPerimeter=0;" edge="1" parent="1" source="63IlsyqGjVsd49jZ4odT-112" target="63IlsyqGjVsd49jZ4odT-68">
          <mxGeometry relative="1" as="geometry">
            <Array as="points">
              <mxPoint x="-628" y="358" />
            </Array>
          </mxGeometry>
        </mxCell>
        <mxCell id="63IlsyqGjVsd49jZ4odT-114" style="edgeStyle=orthogonalEdgeStyle;rounded=0;orthogonalLoop=1;jettySize=auto;html=1;exitX=1;exitY=0.5;exitDx=0;exitDy=0;entryX=0;entryY=0.5;entryDx=0;entryDy=0;" edge="1" parent="1" source="63IlsyqGjVsd49jZ4odT-63" target="63IlsyqGjVsd49jZ4odT-112">
          <mxGeometry relative="1" as="geometry" />
        </mxCell>
        <mxCell id="63IlsyqGjVsd49jZ4odT-118" style="edgeStyle=orthogonalEdgeStyle;rounded=0;orthogonalLoop=1;jettySize=auto;html=1;exitX=1;exitY=0.5;exitDx=0;exitDy=0;entryX=0;entryY=0.5;entryDx=0;entryDy=0;" edge="1" parent="1" source="63IlsyqGjVsd49jZ4odT-63" target="63IlsyqGjVsd49jZ4odT-116">
          <mxGeometry relative="1" as="geometry" />
        </mxCell>
        <mxCell id="63IlsyqGjVsd49jZ4odT-121" style="edgeStyle=orthogonalEdgeStyle;rounded=0;orthogonalLoop=1;jettySize=auto;html=1;exitX=1;exitY=0.5;exitDx=0;exitDy=0;entryX=0;entryY=0.5;entryDx=0;entryDy=0;" edge="1" parent="1" source="63IlsyqGjVsd49jZ4odT-63" target="63IlsyqGjVsd49jZ4odT-102">
          <mxGeometry relative="1" as="geometry" />
        </mxCell>
        <mxCell id="63IlsyqGjVsd49jZ4odT-63" value="Client Web Browser" style="ellipse;whiteSpace=wrap;html=1;aspect=fixed;" vertex="1" parent="1">
          <mxGeometry x="-1080" y="235" width="170" height="170" as="geometry" />
        </mxCell>
        <mxCell id="63IlsyqGjVsd49jZ4odT-119" style="edgeStyle=orthogonalEdgeStyle;rounded=0;orthogonalLoop=1;jettySize=auto;html=1;exitX=0.5;exitY=0;exitDx=0;exitDy=0;entryX=0.5;entryY=0;entryDx=0;entryDy=0;" edge="1" parent="1" source="63IlsyqGjVsd49jZ4odT-124" target="63IlsyqGjVsd49jZ4odT-63">
          <mxGeometry relative="1" as="geometry">
            <Array as="points">
              <mxPoint x="-995" y="160" />
            </Array>
          </mxGeometry>
        </mxCell>
        <mxCell id="63IlsyqGjVsd49jZ4odT-137" style="edgeStyle=orthogonalEdgeStyle;rounded=0;orthogonalLoop=1;jettySize=auto;html=1;exitX=0;exitY=0.5;exitDx=0;exitDy=0;entryX=0.5;entryY=1;entryDx=0;entryDy=0;" edge="1" parent="1" source="63IlsyqGjVsd49jZ4odT-138" target="63IlsyqGjVsd49jZ4odT-63">
          <mxGeometry relative="1" as="geometry" />
        </mxCell>
        <mxCell id="63IlsyqGjVsd49jZ4odT-145" style="edgeStyle=orthogonalEdgeStyle;rounded=0;orthogonalLoop=1;jettySize=auto;html=1;exitX=0.5;exitY=1;exitDx=0;exitDy=0;entryX=1;entryY=0.5;entryDx=0;entryDy=0;" edge="1" parent="1" source="63IlsyqGjVsd49jZ4odT-68" target="63IlsyqGjVsd49jZ4odT-141">
          <mxGeometry relative="1" as="geometry" />
        </mxCell>
        <mxCell id="63IlsyqGjVsd49jZ4odT-146" style="edgeStyle=orthogonalEdgeStyle;rounded=0;orthogonalLoop=1;jettySize=auto;html=1;exitX=0.5;exitY=1;exitDx=0;exitDy=0;entryX=1;entryY=0.5;entryDx=0;entryDy=0;" edge="1" parent="1" source="63IlsyqGjVsd49jZ4odT-68" target="63IlsyqGjVsd49jZ4odT-143">
          <mxGeometry relative="1" as="geometry" />
        </mxCell>
        <mxCell id="63IlsyqGjVsd49jZ4odT-155" style="edgeStyle=orthogonalEdgeStyle;rounded=0;orthogonalLoop=1;jettySize=auto;html=1;exitX=0.75;exitY=0;exitDx=0;exitDy=0;entryX=0.5;entryY=1;entryDx=0;entryDy=0;" edge="1" parent="1" source="63IlsyqGjVsd49jZ4odT-68" target="63IlsyqGjVsd49jZ4odT-149">
          <mxGeometry relative="1" as="geometry">
            <Array as="points">
              <mxPoint x="-308" y="270" />
              <mxPoint x="-308" y="228" />
            </Array>
          </mxGeometry>
        </mxCell>
        <mxCell id="63IlsyqGjVsd49jZ4odT-68" value="NODE JS SERVER&amp;nbsp;" style="rounded=0;whiteSpace=wrap;html=1;" vertex="1" parent="1">
          <mxGeometry x="-505" y="270" width="180" height="100" as="geometry" />
        </mxCell>
        <mxCell id="63IlsyqGjVsd49jZ4odT-69" value="ETHEREUM" style="ellipse;whiteSpace=wrap;html=1;aspect=fixed;" vertex="1" parent="1">
          <mxGeometry x="-505" y="570" width="170" height="170" as="geometry" />
        </mxCell>
        <mxCell id="63IlsyqGjVsd49jZ4odT-70" value="MONGODB" style="html=1;dashed=0;whiteSpace=wrap;shape=partialRectangle;right=0;left=0;" vertex="1" parent="1">
          <mxGeometry x="-510" y="-40" width="170" height="110" as="geometry" />
        </mxCell>
        <mxCell id="63IlsyqGjVsd49jZ4odT-96" value="&lt;font style=&quot;font-size: 30px;&quot;&gt;VOTER&lt;/font&gt;" style="text;html=1;align=center;verticalAlign=middle;whiteSpace=wrap;rounded=0;" vertex="1" parent="1">
          <mxGeometry x="90" y="-60" width="110" height="70" as="geometry" />
        </mxCell>
        <mxCell id="63IlsyqGjVsd49jZ4odT-97" value="&lt;font style=&quot;font-size: 30px;&quot;&gt;ADMIN&lt;/font&gt;" style="text;html=1;align=center;verticalAlign=middle;whiteSpace=wrap;rounded=0;" vertex="1" parent="1">
          <mxGeometry x="-915" y="-40" width="110" height="70" as="geometry" />
        </mxCell>
        <mxCell id="63IlsyqGjVsd49jZ4odT-100" style="edgeStyle=orthogonalEdgeStyle;rounded=0;orthogonalLoop=1;jettySize=auto;html=1;entryX=0.074;entryY=0.007;entryDx=0;entryDy=0;entryPerimeter=0;" edge="1" parent="1" source="63IlsyqGjVsd49jZ4odT-98" target="63IlsyqGjVsd49jZ4odT-68">
          <mxGeometry relative="1" as="geometry">
            <Array as="points">
              <mxPoint x="-610" y="248" />
              <mxPoint x="-497" y="248" />
            </Array>
          </mxGeometry>
        </mxCell>
        <mxCell id="63IlsyqGjVsd49jZ4odT-98" value="2.1" style="whiteSpace=wrap;html=1;" vertex="1" parent="1">
          <mxGeometry x="-805" y="235" width="55" height="25" as="geometry" />
        </mxCell>
        <mxCell id="63IlsyqGjVsd49jZ4odT-102" value="3.1" style="whiteSpace=wrap;html=1;" vertex="1" parent="1">
          <mxGeometry x="-805" y="270" width="55" height="25" as="geometry" />
        </mxCell>
        <mxCell id="63IlsyqGjVsd49jZ4odT-110" value="" style="edgeStyle=orthogonalEdgeStyle;rounded=0;orthogonalLoop=1;jettySize=auto;html=1;entryX=0;entryY=0.5;entryDx=0;entryDy=0;" edge="1" parent="1" source="63IlsyqGjVsd49jZ4odT-63" target="63IlsyqGjVsd49jZ4odT-109">
          <mxGeometry relative="1" as="geometry">
            <mxPoint x="-910" y="320" as="sourcePoint" />
            <mxPoint x="-510" y="345" as="targetPoint" />
          </mxGeometry>
        </mxCell>
        <mxCell id="63IlsyqGjVsd49jZ4odT-109" value="3.2" style="whiteSpace=wrap;html=1;" vertex="1" parent="1">
          <mxGeometry x="-805" y="307.5" width="55" height="25" as="geometry" />
        </mxCell>
        <mxCell id="63IlsyqGjVsd49jZ4odT-112" value="4.1" style="whiteSpace=wrap;html=1;" vertex="1" parent="1">
          <mxGeometry x="-805" y="345" width="55" height="25" as="geometry" />
        </mxCell>
        <mxCell id="63IlsyqGjVsd49jZ4odT-115" style="edgeStyle=orthogonalEdgeStyle;rounded=0;orthogonalLoop=1;jettySize=auto;html=1;exitX=1;exitY=0.5;exitDx=0;exitDy=0;entryX=0.1;entryY=1.02;entryDx=0;entryDy=0;entryPerimeter=0;" edge="1" parent="1" source="63IlsyqGjVsd49jZ4odT-116" target="63IlsyqGjVsd49jZ4odT-68">
          <mxGeometry relative="1" as="geometry">
            <Array as="points" />
          </mxGeometry>
        </mxCell>
        <mxCell id="63IlsyqGjVsd49jZ4odT-116" value="4.2" style="whiteSpace=wrap;html=1;" vertex="1" parent="1">
          <mxGeometry x="-805" y="385" width="55" height="25" as="geometry" />
        </mxCell>
        <mxCell id="63IlsyqGjVsd49jZ4odT-125" value="" style="edgeStyle=orthogonalEdgeStyle;rounded=0;orthogonalLoop=1;jettySize=auto;html=1;exitX=0.5;exitY=0;exitDx=0;exitDy=0;entryX=0.5;entryY=0;entryDx=0;entryDy=0;" edge="1" parent="1" source="63IlsyqGjVsd49jZ4odT-68" target="63IlsyqGjVsd49jZ4odT-124">
          <mxGeometry relative="1" as="geometry">
            <mxPoint x="-415" y="270" as="sourcePoint" />
            <mxPoint x="-995" y="235" as="targetPoint" />
            <Array as="points">
              <mxPoint x="-415" y="158" />
              <mxPoint x="-833" y="158" />
            </Array>
          </mxGeometry>
        </mxCell>
        <mxCell id="63IlsyqGjVsd49jZ4odT-124" value="2.2" style="whiteSpace=wrap;html=1;" vertex="1" parent="1">
          <mxGeometry x="-860" y="145" width="55" height="25" as="geometry" />
        </mxCell>
        <mxCell id="63IlsyqGjVsd49jZ4odT-128" value="" style="edgeStyle=orthogonalEdgeStyle;rounded=0;orthogonalLoop=1;jettySize=auto;html=1;exitX=0.5;exitY=0;exitDx=0;exitDy=0;entryX=1;entryY=0.5;entryDx=0;entryDy=0;" edge="1" parent="1" source="63IlsyqGjVsd49jZ4odT-68" target="63IlsyqGjVsd49jZ4odT-126">
          <mxGeometry relative="1" as="geometry">
            <mxPoint x="-415" y="270" as="sourcePoint" />
            <mxPoint x="-995" y="235" as="targetPoint" />
            <Array as="points">
              <mxPoint x="-420" y="270" />
              <mxPoint x="-420" y="183" />
            </Array>
          </mxGeometry>
        </mxCell>
        <mxCell id="63IlsyqGjVsd49jZ4odT-129" style="edgeStyle=orthogonalEdgeStyle;rounded=0;orthogonalLoop=1;jettySize=auto;html=1;exitX=0;exitY=0.5;exitDx=0;exitDy=0;" edge="1" parent="1" source="63IlsyqGjVsd49jZ4odT-126" target="63IlsyqGjVsd49jZ4odT-63">
          <mxGeometry relative="1" as="geometry" />
        </mxCell>
        <mxCell id="63IlsyqGjVsd49jZ4odT-126" value="2.3" style="whiteSpace=wrap;html=1;" vertex="1" parent="1">
          <mxGeometry x="-780" y="170" width="55" height="25" as="geometry" />
        </mxCell>
        <mxCell id="63IlsyqGjVsd49jZ4odT-131" value="" style="edgeStyle=orthogonalEdgeStyle;rounded=0;orthogonalLoop=1;jettySize=auto;html=1;exitX=0.5;exitY=0;exitDx=0;exitDy=0;entryX=1;entryY=0.5;entryDx=0;entryDy=0;" edge="1" parent="1" source="63IlsyqGjVsd49jZ4odT-68" target="63IlsyqGjVsd49jZ4odT-130">
          <mxGeometry relative="1" as="geometry">
            <mxPoint x="-415" y="270" as="sourcePoint" />
            <mxPoint x="-995" y="235" as="targetPoint" />
            <Array as="points">
              <mxPoint x="-420" y="270" />
              <mxPoint x="-420" y="208" />
            </Array>
          </mxGeometry>
        </mxCell>
        <mxCell id="63IlsyqGjVsd49jZ4odT-132" style="edgeStyle=orthogonalEdgeStyle;rounded=0;orthogonalLoop=1;jettySize=auto;html=1;exitX=0;exitY=0.5;exitDx=0;exitDy=0;entryX=0.5;entryY=0;entryDx=0;entryDy=0;" edge="1" parent="1" source="63IlsyqGjVsd49jZ4odT-130" target="63IlsyqGjVsd49jZ4odT-63">
          <mxGeometry relative="1" as="geometry" />
        </mxCell>
        <mxCell id="63IlsyqGjVsd49jZ4odT-130" value="3.3" style="whiteSpace=wrap;html=1;" vertex="1" parent="1">
          <mxGeometry x="-860" y="195" width="55" height="25" as="geometry" />
        </mxCell>
        <mxCell id="63IlsyqGjVsd49jZ4odT-135" value="" style="edgeStyle=orthogonalEdgeStyle;rounded=0;orthogonalLoop=1;jettySize=auto;html=1;exitX=0.5;exitY=0;exitDx=0;exitDy=0;entryX=1;entryY=0.5;entryDx=0;entryDy=0;" edge="1" parent="1" source="63IlsyqGjVsd49jZ4odT-68" target="63IlsyqGjVsd49jZ4odT-134">
          <mxGeometry relative="1" as="geometry">
            <mxPoint x="-415" y="270" as="sourcePoint" />
            <mxPoint x="-995" y="235" as="targetPoint" />
            <Array as="points" />
          </mxGeometry>
        </mxCell>
        <mxCell id="63IlsyqGjVsd49jZ4odT-136" style="edgeStyle=orthogonalEdgeStyle;rounded=0;orthogonalLoop=1;jettySize=auto;html=1;exitX=0;exitY=0.5;exitDx=0;exitDy=0;entryX=0.5;entryY=0;entryDx=0;entryDy=0;" edge="1" parent="1" source="63IlsyqGjVsd49jZ4odT-134" target="63IlsyqGjVsd49jZ4odT-63">
          <mxGeometry relative="1" as="geometry" />
        </mxCell>
        <mxCell id="63IlsyqGjVsd49jZ4odT-134" value="3.4" style="whiteSpace=wrap;html=1;" vertex="1" parent="1">
          <mxGeometry x="-780" y="120" width="55" height="25" as="geometry" />
        </mxCell>
        <mxCell id="63IlsyqGjVsd49jZ4odT-139" value="" style="edgeStyle=orthogonalEdgeStyle;rounded=0;orthogonalLoop=1;jettySize=auto;html=1;exitX=0.5;exitY=1;exitDx=0;exitDy=0;entryX=1;entryY=0.5;entryDx=0;entryDy=0;" edge="1" parent="1" source="63IlsyqGjVsd49jZ4odT-68" target="63IlsyqGjVsd49jZ4odT-138">
          <mxGeometry relative="1" as="geometry">
            <mxPoint x="-415" y="370" as="sourcePoint" />
            <mxPoint x="-995" y="405" as="targetPoint" />
          </mxGeometry>
        </mxCell>
        <mxCell id="63IlsyqGjVsd49jZ4odT-138" value="3.5" style="whiteSpace=wrap;html=1;" vertex="1" parent="1">
          <mxGeometry x="-860" y="420" width="55" height="25" as="geometry" />
        </mxCell>
        <mxCell id="63IlsyqGjVsd49jZ4odT-144" style="edgeStyle=orthogonalEdgeStyle;rounded=0;orthogonalLoop=1;jettySize=auto;html=1;exitX=0;exitY=0.5;exitDx=0;exitDy=0;entryX=0.5;entryY=1;entryDx=0;entryDy=0;" edge="1" parent="1" source="63IlsyqGjVsd49jZ4odT-141" target="63IlsyqGjVsd49jZ4odT-63">
          <mxGeometry relative="1" as="geometry" />
        </mxCell>
        <mxCell id="63IlsyqGjVsd49jZ4odT-141" value="3.6" style="whiteSpace=wrap;html=1;" vertex="1" parent="1">
          <mxGeometry x="-790" y="445" width="55" height="25" as="geometry" />
        </mxCell>
        <mxCell id="63IlsyqGjVsd49jZ4odT-148" style="edgeStyle=orthogonalEdgeStyle;rounded=0;orthogonalLoop=1;jettySize=auto;html=1;exitX=0;exitY=0.5;exitDx=0;exitDy=0;entryX=0.5;entryY=1;entryDx=0;entryDy=0;" edge="1" parent="1" source="63IlsyqGjVsd49jZ4odT-143" target="63IlsyqGjVsd49jZ4odT-63">
          <mxGeometry relative="1" as="geometry" />
        </mxCell>
        <mxCell id="63IlsyqGjVsd49jZ4odT-143" value="3.7" style="whiteSpace=wrap;html=1;" vertex="1" parent="1">
          <mxGeometry x="-860" y="470" width="55" height="25" as="geometry" />
        </mxCell>
        <mxCell id="63IlsyqGjVsd49jZ4odT-149" value="4.3" style="whiteSpace=wrap;html=1;" vertex="1" parent="1">
          <mxGeometry x="-335" y="160" width="55" height="25" as="geometry" />
        </mxCell>
        <mxCell id="63IlsyqGjVsd49jZ4odT-150" value="3.8" style="whiteSpace=wrap;html=1;" vertex="1" parent="1">
          <mxGeometry x="-390" y="200" width="55" height="25" as="geometry" />
        </mxCell>
        <mxCell id="63IlsyqGjVsd49jZ4odT-152" style="edgeStyle=orthogonalEdgeStyle;rounded=0;orthogonalLoop=1;jettySize=auto;html=1;exitX=0.75;exitY=0;exitDx=0;exitDy=0;entryX=0.604;entryY=0.979;entryDx=0;entryDy=0;entryPerimeter=0;" edge="1" parent="1" source="63IlsyqGjVsd49jZ4odT-68" target="63IlsyqGjVsd49jZ4odT-150">
          <mxGeometry relative="1" as="geometry">
            <Array as="points">
              <mxPoint x="-357" y="270" />
            </Array>
          </mxGeometry>
        </mxCell>
        <mxCell id="63IlsyqGjVsd49jZ4odT-153" style="edgeStyle=orthogonalEdgeStyle;rounded=0;orthogonalLoop=1;jettySize=auto;html=1;exitX=0.5;exitY=0;exitDx=0;exitDy=0;entryX=0.695;entryY=0.981;entryDx=0;entryDy=0;entryPerimeter=0;" edge="1" parent="1" source="63IlsyqGjVsd49jZ4odT-150" target="63IlsyqGjVsd49jZ4odT-70">
          <mxGeometry relative="1" as="geometry">
            <Array as="points">
              <mxPoint x="-362" y="135" />
              <mxPoint x="-390" y="135" />
              <mxPoint x="-390" y="71" />
              <mxPoint x="-392" y="71" />
            </Array>
          </mxGeometry>
        </mxCell>
        <mxCell id="63IlsyqGjVsd49jZ4odT-154" style="edgeStyle=orthogonalEdgeStyle;rounded=0;orthogonalLoop=1;jettySize=auto;html=1;exitX=0.5;exitY=0;exitDx=0;exitDy=0;entryX=0.877;entryY=1.013;entryDx=0;entryDy=0;entryPerimeter=0;" edge="1" parent="1" source="63IlsyqGjVsd49jZ4odT-149" target="63IlsyqGjVsd49jZ4odT-70">
          <mxGeometry relative="1" as="geometry" />
        </mxCell>
        <mxCell id="63IlsyqGjVsd49jZ4odT-157" value="5.6" style="rounded=0;whiteSpace=wrap;html=1;" vertex="1" parent="1">
          <mxGeometry x="620" y="191.25" width="30" height="17.5" as="geometry" />
        </mxCell>
        <mxCell id="63IlsyqGjVsd49jZ4odT-159" value="5.7" style="rounded=0;whiteSpace=wrap;html=1;" vertex="1" parent="1">
          <mxGeometry x="660" y="167.5" width="30" height="17.5" as="geometry" />
        </mxCell>
        <mxCell id="63IlsyqGjVsd49jZ4odT-160" value="5.8" style="rounded=0;whiteSpace=wrap;html=1;" vertex="1" parent="1">
          <mxGeometry x="700" y="145" width="30" height="17.5" as="geometry" />
        </mxCell>
        <mxCell id="63IlsyqGjVsd49jZ4odT-170" style="edgeStyle=orthogonalEdgeStyle;rounded=0;orthogonalLoop=1;jettySize=auto;html=1;exitX=0.5;exitY=1;exitDx=0;exitDy=0;entryX=1;entryY=0.25;entryDx=0;entryDy=0;" edge="1" parent="1" source="63IlsyqGjVsd49jZ4odT-161" target="63IlsyqGjVsd49jZ4odT-2">
          <mxGeometry relative="1" as="geometry" />
        </mxCell>
        <mxCell id="63IlsyqGjVsd49jZ4odT-161" value="5.9" style="rounded=0;whiteSpace=wrap;html=1;" vertex="1" parent="1">
          <mxGeometry x="740" y="127.5" width="30" height="17.5" as="geometry" />
        </mxCell>
        <mxCell id="63IlsyqGjVsd49jZ4odT-162" value="5.10" style="rounded=0;whiteSpace=wrap;html=1;" vertex="1" parent="1">
          <mxGeometry x="780" y="110" width="30" height="17.5" as="geometry" />
        </mxCell>
        <mxCell id="63IlsyqGjVsd49jZ4odT-169" style="edgeStyle=orthogonalEdgeStyle;rounded=0;orthogonalLoop=1;jettySize=auto;html=1;exitX=0.5;exitY=1;exitDx=0;exitDy=0;entryX=1.004;entryY=0.439;entryDx=0;entryDy=0;entryPerimeter=0;" edge="1" parent="1" source="63IlsyqGjVsd49jZ4odT-162" target="63IlsyqGjVsd49jZ4odT-2">
          <mxGeometry relative="1" as="geometry" />
        </mxCell>
        <mxCell id="63IlsyqGjVsd49jZ4odT-171" style="edgeStyle=orthogonalEdgeStyle;rounded=0;orthogonalLoop=1;jettySize=auto;html=1;exitX=0.5;exitY=1;exitDx=0;exitDy=0;entryX=0.998;entryY=0.122;entryDx=0;entryDy=0;entryPerimeter=0;" edge="1" parent="1" source="63IlsyqGjVsd49jZ4odT-160" target="63IlsyqGjVsd49jZ4odT-2">
          <mxGeometry relative="1" as="geometry" />
        </mxCell>
        <mxCell id="63IlsyqGjVsd49jZ4odT-172" style="edgeStyle=orthogonalEdgeStyle;rounded=0;orthogonalLoop=1;jettySize=auto;html=1;exitX=0.5;exitY=1;exitDx=0;exitDy=0;entryX=1.006;entryY=0.053;entryDx=0;entryDy=0;entryPerimeter=0;" edge="1" parent="1" source="63IlsyqGjVsd49jZ4odT-159" target="63IlsyqGjVsd49jZ4odT-2">
          <mxGeometry relative="1" as="geometry">
            <Array as="points">
              <mxPoint x="675" y="220" />
              <mxPoint x="641" y="220" />
            </Array>
          </mxGeometry>
        </mxCell>
        <mxCell id="63IlsyqGjVsd49jZ4odT-173" style="edgeStyle=orthogonalEdgeStyle;rounded=0;orthogonalLoop=1;jettySize=auto;html=1;exitX=0.5;exitY=1;exitDx=0;exitDy=0;entryX=0.949;entryY=0.029;entryDx=0;entryDy=0;entryPerimeter=0;" edge="1" parent="1" source="63IlsyqGjVsd49jZ4odT-157" target="63IlsyqGjVsd49jZ4odT-2">
          <mxGeometry relative="1" as="geometry" />
        </mxCell>
      </root>
    </mxGraphModel>
  </diagram>
</mxfile>
